<svg width="34" height="30" viewBox="0 0 34 30" fill="none" xmlns="http://www.w3.org/2000/svg">
<path d="M18.6667 21.6667H15.3334C14.4167 21.6667 13.6667 20.9167 13.6667 20H2.01671V26.6667C2.01671 28.5 3.51671 30 5.35004 30H28.6667C30.5 30 32 28.5 32 26.6667V20H20.3334C20.3334 20.9167 19.5834 21.6667 18.6667 21.6667ZM30.3334 6.66667H23.6667C23.6667 2.98333 20.6834 0 17 0C13.3167 0 10.3334 2.98333 10.3334 6.66667H3.66671C1.83337 6.66667 0.333374 8.16667 0.333374 10V15C0.333374 16.85 1.81671 18.3333 3.66671 18.3333H13.6667V16.6667C13.6667 15.75 14.4167 15 15.3334 15H18.6667C19.5834 15 20.3334 15.75 20.3334 16.6667V18.3333H30.3334C32.1667 18.3333 33.6667 16.8333 33.6667 15V10C33.6667 8.16667 32.1667 6.66667 30.3334 6.66667ZM13.6667 6.66667C13.6667 4.83333 15.1667 3.33333 17 3.33333C18.8334 3.33333 20.3334 4.83333 20.3334 6.66667H13.65H13.6667Z" fill="#242056"/>
</svg>
