<svg width="38" height="36" viewBox="0 0 38 36" fill="none" xmlns="http://www.w3.org/2000/svg">
<path d="M21.8751 1.25869C23.1329 5.85947 31.6642 7.36728 37.336 10.336C37.461 13.086 36.211 16.0079 32.9063 18.3282C33.1329 23.8126 29.6407 26.9376 23.9767 28.672C23.9532 31.2657 22.9845 33.672 20.2813 35.7267L15.672 32.8829L19.3751 30.211C19.2345 28.211 18.6251 26.1251 15.0782 24.9532L13.0235 17.672C8.76571 16.8595 8.96884 15.2267 8.62509 13.6954L3.55243 15.2892C-0.287722 12.8673 -0.50241 9.39853 4.0415 8.77353L4.58759 3.0876L8.58603 3.8001L9.39072 0.893066L13.2657 0.275879L14.8829 3.19229L21.8751 1.25869Z" fill="#242056"/>
</svg>
