<svg width="40" height="30" viewBox="0 0 40 30" fill="none" xmlns="http://www.w3.org/2000/svg">
<path d="M9.86645 13.6H12V26.4H15.2V15.2H18.4V26.4H21.6V15.2H24.8V26.4H28V13.6H30.1328C30.7216 13.6 31.2 13.0112 31.2 12.4808C31.2 12.16 31.0232 11.7984 30.756 11.624L30.7576 11.5824L30.7408 11.5528L30.8481 11.5264L20.8 6.35125V4.83765C22.4 5.68485 23.9608 4.22565 26.4 5.10325V1.76005C23.9592 0.883249 22.4 2.34165 20.8 1.49445V1.28005C20.8 1.01525 20.2952 0.800049 20 0.800049C19.7048 0.800049 19.2 1.01525 19.2 1.28005V6.35125L9.15285 11.516L9.36965 11.5328L9.60005 11.5416V11.5432C8.80005 11.7176 8.97925 12.1592 8.97925 12.48C8.97845 13.0112 9.27765 13.6 9.86645 13.6ZM11.2 27.2L8.80005 29.6H31.2L28.8 27.2H11.2ZM28.8 14.4V26.4H29.508L29.8209 26.8424L31.9536 28.8416L32.708 29.6H39.2001V14.4H28.8ZM33.6 24H31.2V21.6H33.6V24ZM33.6 19.2H31.2V16.8H33.6V19.2ZM36.8 24H35.2001V21.6H36.8V24ZM36.8 19.2H35.2001V16.8H36.8V19.2ZM10.4912 26.4H11.2V14.4H0.800049V29.6H7.29125L8.04485 28.9216L10.1784 26.8416L10.4912 26.4ZM4.80005 24H3.20005V21.6H4.80005V24ZM4.80005 19.2H3.20005V16.8H4.80005V19.2ZM8.80005 24H6.40005V21.6H8.80005V24ZM8.80005 19.2H6.40005V16.8H8.80005V19.2Z" fill="#242056"/>
</svg>
