<svg width="40" height="40" viewBox="0 0 40 40" fill="none" xmlns="http://www.w3.org/2000/svg">
<path d="M25.0001 6.66667C25.0001 5.74583 22.5101 5 20.0001 5C17.4901 5 15.0001 5.74583 15.0001 6.66667L14.2901 9.03417C14.5842 9.07917 14.9084 9.12667 15.2509 9.17417C16.7476 9.3825 18.5759 9.58333 20.0001 9.58333C21.4251 9.58333 23.2526 9.38167 24.7492 9.175C25.0917 9.12667 25.4159 9.07917 25.7101 9.03417L25.0001 6.66667ZM26.3226 10.6258C25.9326 10.6875 25.4751 10.7567 24.9776 10.8258C23.4667 11.0342 21.5442 11.25 20.0001 11.25C18.4551 11.25 16.5334 11.035 15.0226 10.825C14.5736 10.7628 14.1253 10.6964 13.6776 10.6258C10.9459 11.2317 9.16675 12.2183 9.16675 13.3333C9.16675 15.175 14.0167 16.6667 20.0001 16.6667C25.9834 16.6667 30.8334 15.175 30.8334 13.3333C30.8334 12.2183 29.0542 11.2317 26.3226 10.6258Z" fill="#242056"/>
<path d="M13.335 15.9617C13.3688 17.7071 14.0859 19.3696 15.3322 20.592C16.5785 21.8145 18.2546 22.4992 20.0004 22.4992C21.7461 22.4992 23.4222 21.8145 24.6686 20.592C25.9149 19.3696 26.632 17.7071 26.6658 15.9617C26.1081 16.0945 25.5454 16.2057 24.9791 16.295C24.8654 17.537 24.2916 18.6916 23.3704 19.5323C22.4492 20.373 21.2471 20.839 20 20.839C18.7528 20.839 17.5507 20.373 16.6295 19.5323C15.7083 18.6916 15.1345 17.537 15.0208 16.295C14.4548 16.2057 13.8924 16.0945 13.335 15.9617Z" fill="#242056"/>
<path fill-rule="evenodd" clip-rule="evenodd" d="M14.3307 29.1667C13.7341 30.1984 12.7896 30.9839 11.6666 31.3826V34.1667C11.6666 34.4584 11.6166 34.7392 11.5249 35.0001H34.9999V30.0001C34.9999 25.4859 25.0066 24.1667 19.9999 24.1667C18.3276 24.1754 16.6575 24.2906 14.9999 24.5117V29.1667H14.3307ZM19.9999 30.0001C18.8792 29.9988 17.7619 29.8787 16.6666 29.6417V26.0001C17.8891 25.8851 19.0399 25.8334 19.9999 25.8334C21.3882 25.8334 23.1741 25.9409 24.9999 26.1934V29.1667C24.9891 29.1709 22.9082 30.0001 19.9999 30.0001ZM28.9191 26.9934C28.4591 26.8617 27.9841 26.7434 27.4999 26.6359V29.1667H29.1666C29.3876 29.1667 29.5995 29.2545 29.7558 29.4108C29.9121 29.5671 29.9999 29.7791 29.9999 30.0001V33.3334H33.3332V30.0001C33.3332 29.5784 33.1266 29.0901 32.3624 28.5192C31.5791 27.9342 30.3932 27.4151 28.9191 26.9934Z" fill="#242056"/>
<path d="M6.66667 20.8333C6.66667 20.6123 6.57887 20.4004 6.42259 20.2441C6.26631 20.0878 6.05435 20 5.83333 20C5.61232 20 5.40036 20.0878 5.24408 20.2441C5.0878 20.4004 5 20.6123 5 20.8333V26.6667C5 27.5507 5.35119 28.3986 5.97631 29.0237C6.60143 29.6488 7.44928 30 8.33333 30V34.1667C8.33333 34.3877 8.42113 34.5996 8.57741 34.7559C8.73369 34.9122 8.94565 35 9.16667 35C9.38768 35 9.59964 34.9122 9.75592 34.7559C9.9122 34.5996 10 34.3877 10 34.1667V30C10.8841 30 11.7319 29.6488 12.357 29.0237C12.9821 28.3986 13.3333 27.5507 13.3333 26.6667V20.8333C13.3333 20.6123 13.2455 20.4004 13.0893 20.2441C12.933 20.0878 12.721 20 12.5 20C12.279 20 12.067 20.0878 11.9107 20.2441C11.7545 20.4004 11.6667 20.6123 11.6667 20.8333V26.6667C11.6667 27.1087 11.4911 27.5326 11.1785 27.8452C10.866 28.1577 10.442 28.3333 10 28.3333V20.8333C10 20.6123 9.9122 20.4004 9.75592 20.2441C9.59964 20.0878 9.38768 20 9.16667 20C8.94565 20 8.73369 20.0878 8.57741 20.2441C8.42113 20.4004 8.33333 20.6123 8.33333 20.8333V28.3333C7.89131 28.3333 7.46738 28.1577 7.15482 27.8452C6.84226 27.5326 6.66667 27.1087 6.66667 26.6667V20.8333Z" fill="#242056"/>
</svg>
